<svg width="115" height="54" viewBox="0 0 115 54" fill="none" xmlns="http://www.w3.org/2000/svg">
<path d="M28.5387 34.5V32.8807H28.9648C29.5709 32.8807 30.042 32.6866 30.3782 32.2983C30.7144 31.91 30.9558 31.2827 31.1026 30.4162C31.2541 29.5497 31.3559 28.4015 31.408 26.9716L31.6637 19.9545H40.5273V34.5H38.766V21.517H33.3398L33.1126 27.3125C33.0558 28.8371 32.9161 30.1345 32.6935 31.2045C32.471 32.2746 32.0804 33.0914 31.5217 33.6548C30.9629 34.2183 30.1486 34.5 29.0785 34.5H28.5387ZM48.2511 34.7273C47.2662 34.7273 46.4021 34.4929 45.6587 34.0241C44.9201 33.5554 44.3424 32.8996 43.9258 32.0568C43.5138 31.214 43.3079 30.2292 43.3079 29.1023C43.3079 27.9659 43.5138 26.974 43.9258 26.1264C44.3424 25.2789 44.9201 24.6207 45.6587 24.152C46.4021 23.6832 47.2662 23.4489 48.2511 23.4489C49.2359 23.4489 50.0977 23.6832 50.8363 24.152C51.5797 24.6207 52.1573 25.2789 52.5692 26.1264C52.9859 26.974 53.1942 27.9659 53.1942 29.1023C53.1942 30.2292 52.9859 31.214 52.5692 32.0568C52.1573 32.8996 51.5797 33.5554 50.8363 34.0241C50.0977 34.4929 49.2359 34.7273 48.2511 34.7273ZM48.2511 33.2216C48.9992 33.2216 49.6147 33.0298 50.0977 32.6463C50.5806 32.2628 50.9381 31.7585 51.1701 31.1335C51.4021 30.5085 51.5181 29.8314 51.5181 29.1023C51.5181 28.3731 51.4021 27.6937 51.1701 27.0639C50.9381 26.4342 50.5806 25.9252 50.0977 25.5369C49.6147 25.1487 48.9992 24.9545 48.2511 24.9545C47.503 24.9545 46.8874 25.1487 46.4045 25.5369C45.9215 25.9252 45.564 26.4342 45.332 27.0639C45.1 27.6937 44.984 28.3731 44.984 29.1023C44.984 29.8314 45.1 30.5085 45.332 31.1335C45.564 31.7585 45.9215 32.2628 46.4045 32.6463C46.8874 33.0298 47.503 33.2216 48.2511 33.2216ZM62.4858 23.5909V25.1534H57.429V34.5H55.7528V23.5909H62.4858ZM66.6087 32.0284L71.8643 23.5909H73.7962V34.5H72.12V26.0625L66.8928 34.5H64.9325V23.5909H66.6087V32.0284ZM84.1673 28.2784V29.8409H78.1445V28.2784H84.1673ZM78.5423 23.5909V34.5H76.8661V23.5909H78.5423ZM85.4457 23.5909V34.5H83.7695V23.5909H85.4457Z" fill="#EF0195"/>
<rect x="1.5" y="1.5" width="112" height="51" rx="9" stroke="#F68741" stroke-width="2"/>
</svg>
