<svg width="160" height="48" viewBox="0 0 160 48" fill="none" xmlns="http://www.w3.org/2000/svg">
<path d="M14.5898 33H12.7148V18H16.0059L29.7559 31.125V18H31.6309V33H29.1309L14.5898 19.5625V33ZM41.3281 33.2148C40.0781 33.2148 39.0169 33.1302 38.1445 32.9609C37.2721 32.7852 36.5625 32.4857 36.0156 32.0625C35.4688 31.6393 35.0716 31.0729 34.8242 30.3633C34.5768 29.6536 34.4531 28.7617 34.4531 27.6875C34.4531 26.457 34.5768 25.4414 34.8242 24.6406C35.0716 23.8333 35.4688 23.1921 36.0156 22.7168C36.5625 22.2415 37.2721 21.9095 38.1445 21.7207C39.0169 21.5319 40.0781 21.4375 41.3281 21.4375C42.2201 21.4375 42.9915 21.5026 43.6426 21.6328C44.3001 21.763 44.86 21.9518 45.3223 22.1992C45.791 22.4466 46.1686 22.7461 46.4551 23.0977C46.748 23.4492 46.9759 23.8203 47.1387 24.2109C47.3079 24.5951 47.4219 25.0475 47.4805 25.5684C47.5456 26.0892 47.5781 26.6393 47.5781 27.2188L47.4219 27.8438H36.3281C36.3281 28.7031 36.4128 29.4095 36.582 29.9629C36.7513 30.5098 37.0312 30.9102 37.4219 31.1641C37.8125 31.418 38.3268 31.5807 38.9648 31.6523C39.6029 31.7174 40.3906 31.75 41.3281 31.75C42.1875 31.75 42.8971 31.7272 43.457 31.6816C44.0234 31.6296 44.4727 31.5352 44.8047 31.3984C45.1367 31.2617 45.3678 31.0729 45.498 30.832C45.6348 30.5846 45.7031 30.2656 45.7031 29.875H47.5781C47.5781 30.4805 47.4707 30.998 47.2559 31.4277C47.0475 31.8509 46.6992 32.196 46.2109 32.4629C45.7227 32.7233 45.0781 32.9121 44.2773 33.0293C43.4831 33.153 42.5 33.2148 41.3281 33.2148ZM41.3281 23C40.7031 23 40.1432 23.013 39.6484 23.0391C39.1602 23.0651 38.7305 23.1237 38.3594 23.2148C37.9948 23.2995 37.6823 23.4264 37.4219 23.5957C37.1615 23.7585 36.9499 23.9538 36.7871 24.1816C36.6309 24.403 36.5137 24.7188 36.4355 25.1289C36.3639 25.5326 36.3281 26.0208 36.3281 26.5938H45.7031C45.7031 25.832 45.6217 25.2363 45.459 24.8066C45.2962 24.3704 45.0391 24.0124 44.6875 23.7324C44.3359 23.4525 43.8835 23.2604 43.3301 23.1562C42.7767 23.0521 42.1094 23 41.3281 23ZM49.7656 27.2969C49.7656 26.1445 49.8893 25.1908 50.1367 24.4355C50.3841 23.6803 50.7812 23.0814 51.3281 22.6387C51.875 22.196 52.5846 21.8867 53.457 21.7109C54.3294 21.5286 55.3906 21.4375 56.6406 21.4375C57.8906 21.4375 58.9518 21.5286 59.8242 21.7109C60.6966 21.8867 61.4062 22.196 61.9531 22.6387C62.5 23.0814 62.8971 23.6803 63.1445 24.4355C63.3919 25.1908 63.5156 26.1445 63.5156 27.2969C63.5156 28.4492 63.3919 29.4062 63.1445 30.168C62.8971 30.9297 62.5 31.5352 61.9531 31.9844C61.4062 32.4336 60.6966 32.7526 59.8242 32.9414C58.9518 33.1237 57.8906 33.2148 56.6406 33.2148C55.3906 33.2148 54.3294 33.1237 53.457 32.9414C52.5846 32.7526 51.875 32.4336 51.3281 31.9844C50.7812 31.5352 50.3841 30.9297 50.1367 30.168C49.8893 29.4062 49.7656 28.4492 49.7656 27.2969ZM51.6406 27.2969C51.6406 27.9219 51.6634 28.4655 51.709 28.9277C51.7546 29.39 51.8392 29.7871 51.9629 30.1191C52.0931 30.4512 52.2721 30.7214 52.5 30.9297C52.7279 31.138 53.0273 31.304 53.3984 31.4277C53.7695 31.5514 54.2188 31.6361 54.7461 31.6816C55.2799 31.7272 55.9115 31.75 56.6406 31.75C57.2656 31.75 57.8223 31.737 58.3105 31.7109C58.8053 31.6784 59.235 31.61 59.5996 31.5059C59.9707 31.4017 60.2865 31.2552 60.5469 31.0664C60.8073 30.8711 61.0156 30.6074 61.1719 30.2754C61.3346 29.9434 61.4518 29.5365 61.5234 29.0547C61.6016 28.5664 61.6406 27.9805 61.6406 27.2969C61.6406 26.6263 61.6016 26.0566 61.5234 25.5879C61.4518 25.1126 61.3346 24.7155 61.1719 24.3965C61.0156 24.0775 60.8073 23.8268 60.5469 23.6445C60.2865 23.4557 59.9707 23.3158 59.5996 23.2246C59.235 23.127 58.8053 23.0651 58.3105 23.0391C57.8223 23.013 57.2656 23 56.6406 23C56.0156 23 55.4557 23.013 54.9609 23.0391C54.4727 23.0651 54.043 23.127 53.6719 23.2246C53.3073 23.3158 52.9948 23.4557 52.7344 23.6445C52.474 23.8268 52.2624 24.0775 52.0996 24.3965C51.9434 24.7155 51.8262 25.1126 51.748 25.5879C51.6764 26.0566 51.6406 26.6263 51.6406 27.2969ZM76.9531 33V26.75C76.9531 26.0534 76.901 25.4674 76.7969 24.9922C76.6927 24.5104 76.4844 24.123 76.1719 23.8301C75.8594 23.5371 75.4167 23.3255 74.8438 23.1953C74.2708 23.0651 73.5156 23 72.5781 23C71.5625 23 70.7292 23.0749 70.0781 23.2246C69.4336 23.3743 68.9258 23.5859 68.5547 23.8594C68.1836 24.1328 67.9264 24.4616 67.7832 24.8457C67.6465 25.2298 67.5781 25.6562 67.5781 26.125V33H65.7031V21.75H67.5781V23.625C67.7148 23.306 67.9102 23.0326 68.1641 22.8047C68.418 22.5703 68.7044 22.3717 69.0234 22.209C69.3424 22.0462 69.6875 21.916 70.0586 21.8184C70.4297 21.7142 70.8008 21.6361 71.1719 21.584C71.543 21.5254 71.901 21.4863 72.2461 21.4668C72.5977 21.4473 72.9167 21.4375 73.2031 21.4375C74.0365 21.4375 74.7526 21.4896 75.3516 21.5938C75.957 21.6979 76.4681 21.8509 76.8848 22.0527C77.3079 22.2546 77.6465 22.5052 77.9004 22.8047C78.1543 23.1042 78.3496 23.4525 78.4863 23.8496C78.6296 24.2402 78.724 24.6797 78.7695 25.168C78.8151 25.6497 78.8379 26.1771 78.8379 26.75L78.8281 33H76.9531ZM91.4258 24.5625C92.4544 24.5625 93.3366 24.6048 94.0723 24.6895C94.8079 24.7741 95.4264 24.901 95.9277 25.0703C96.4355 25.2331 96.8392 25.4382 97.1387 25.6855C97.4382 25.9329 97.6693 26.2161 97.832 26.5352C97.9948 26.8477 98.099 27.1992 98.1445 27.5898C98.1966 27.9805 98.2227 28.4036 98.2227 28.8594C98.2227 29.3151 98.1803 29.7448 98.0957 30.1484C98.0176 30.5456 97.8743 30.9102 97.666 31.2422C97.4577 31.5742 97.1745 31.8704 96.8164 32.1309C96.4583 32.3913 96.0026 32.6126 95.4492 32.7949C94.8958 32.9772 94.2285 33.1139 93.4473 33.2051C92.6725 33.3027 91.7643 33.3516 90.7227 33.3516H88.2227C87.2852 33.3516 86.4648 33.3158 85.7617 33.2441C85.0586 33.1725 84.4531 33.0651 83.9453 32.9219C83.4375 32.7721 83.0176 32.5866 82.6855 32.3652C82.3535 32.1374 82.0866 31.8737 81.8848 31.5742C81.6895 31.2682 81.5527 30.9232 81.4746 30.5391C81.3965 30.1484 81.3574 29.7188 81.3574 29.25H83.2324C83.2324 29.8359 83.3171 30.2949 83.4863 30.627C83.6556 30.959 83.9355 31.2096 84.3262 31.3789C84.7168 31.5417 85.2279 31.6458 85.8594 31.6914C86.4974 31.7305 87.2852 31.75 88.2227 31.75H90.7227C91.8164 31.75 92.7246 31.6979 93.4473 31.5938C94.1699 31.4896 94.7461 31.3236 95.1758 31.0957C95.6055 30.8678 95.9082 30.5716 96.084 30.207C96.2598 29.8359 96.3477 29.3867 96.3477 28.8594C96.3477 28.332 96.2858 27.8926 96.1621 27.541C96.0449 27.1895 95.8073 26.9095 95.4492 26.7012C95.0977 26.4928 94.5996 26.3464 93.9551 26.2617C93.3105 26.1706 92.4674 26.125 91.4258 26.125H88.8477C87.7018 26.125 86.7188 26.0827 85.8984 25.998C85.0846 25.9134 84.401 25.793 83.8477 25.6367C83.2943 25.474 82.8516 25.2754 82.5195 25.041C82.1875 24.8001 81.9336 24.5267 81.7578 24.2207C81.5885 23.9147 81.4779 23.5762 81.4258 23.2051C81.3737 22.8275 81.3477 22.4206 81.3477 21.9844C81.3477 21.5286 81.3867 21.1055 81.4648 20.7148C81.5495 20.3242 81.7025 19.9727 81.9238 19.6602C82.1452 19.3411 82.4479 19.0579 82.832 18.8105C83.2161 18.5632 83.7077 18.3581 84.3066 18.1953C84.9121 18.026 85.638 17.8991 86.4844 17.8145C87.3307 17.7298 88.3268 17.6875 89.4727 17.6875H91.3477C92.2852 17.6875 93.1055 17.7233 93.8086 17.7949C94.5117 17.86 95.1172 17.9674 95.625 18.1172C96.1328 18.2604 96.5527 18.4427 96.8848 18.6641C97.2233 18.8789 97.4902 19.1393 97.6855 19.4453C97.8874 19.7448 98.0273 20.0866 98.1055 20.4707C98.1836 20.8548 98.2227 21.2812 98.2227 21.75H96.3477C96.3477 21.1641 96.263 20.7051 96.0938 20.373C95.9245 20.041 95.6445 19.7936 95.2539 19.6309C94.8633 19.4616 94.349 19.3574 93.7109 19.3184C93.0729 19.2728 92.2852 19.25 91.3477 19.25H89.4727C88.2227 19.25 87.194 19.2956 86.3867 19.3867C85.5794 19.4714 84.9414 19.6178 84.4727 19.8262C84.0039 20.0345 83.6784 20.3145 83.4961 20.666C83.3138 21.0176 83.2227 21.457 83.2227 21.9844C83.2227 22.3099 83.2454 22.5996 83.291 22.8535C83.3366 23.1074 83.4277 23.332 83.5645 23.5273C83.7077 23.7161 83.9062 23.8757 84.1602 24.0059C84.4141 24.1361 84.7493 24.2435 85.166 24.3281C85.5827 24.4128 86.0905 24.4746 86.6895 24.5137C87.2949 24.5462 88.0143 24.5625 88.8477 24.5625H91.4258ZM111.66 28C111.66 28.957 111.582 29.7578 111.426 30.4023C111.27 31.0404 111.006 31.5514 110.635 31.9355C110.27 32.3197 109.788 32.5931 109.189 32.7559C108.59 32.9186 107.852 33 106.973 33C106.12 33 105.404 32.9349 104.824 32.8047C104.245 32.6745 103.776 32.4531 103.418 32.1406C103.06 31.8281 102.803 31.4115 102.646 30.8906C102.49 30.3698 102.412 29.7188 102.412 28.9375V23.293H100.098V21.75H102.412V18.6738H104.287V21.75H111.348V23.293H104.287V28.9375C104.287 29.5625 104.333 30.0443 104.424 30.3828C104.521 30.7214 104.674 30.9688 104.883 31.125C105.091 31.2812 105.365 31.3724 105.703 31.3984C106.048 31.4245 106.468 31.4375 106.963 31.4375C107.354 31.4375 107.702 31.431 108.008 31.418C108.32 31.4049 108.59 31.3659 108.818 31.3008C109.053 31.2292 109.251 31.125 109.414 30.9883C109.577 30.8451 109.707 30.6465 109.805 30.3926C109.909 30.1387 109.984 29.8197 110.029 29.4355C110.075 29.0449 110.098 28.5664 110.098 28H111.66ZM119.473 33L113.535 21.75H115.723L120.723 31.75L125.41 21.75H127.598L121.973 33L121.66 33.625C121.504 33.9375 121.348 34.2305 121.191 34.5039C121.042 34.7839 120.869 35.0378 120.674 35.2656C120.479 35.5 120.247 35.7083 119.98 35.8906C119.714 36.0729 119.385 36.2259 118.994 36.3496C118.61 36.4798 118.151 36.5775 117.617 36.6426C117.083 36.7142 116.452 36.75 115.723 36.75V35.1875C116.348 35.1875 116.875 35.1615 117.305 35.1094C117.734 35.0638 118.092 34.9922 118.379 34.8945C118.672 34.8034 118.906 34.6927 119.082 34.5625C119.258 34.4323 119.404 34.2858 119.521 34.123C119.639 33.9603 119.736 33.7845 119.814 33.5957C119.899 33.4069 119.993 33.2083 120.098 33H119.473ZM130.098 18H131.973V33H130.098V18ZM141.66 33.2148C140.41 33.2148 139.349 33.1302 138.477 32.9609C137.604 32.7852 136.895 32.4857 136.348 32.0625C135.801 31.6393 135.404 31.0729 135.156 30.3633C134.909 29.6536 134.785 28.7617 134.785 27.6875C134.785 26.457 134.909 25.4414 135.156 24.6406C135.404 23.8333 135.801 23.1921 136.348 22.7168C136.895 22.2415 137.604 21.9095 138.477 21.7207C139.349 21.5319 140.41 21.4375 141.66 21.4375C142.552 21.4375 143.324 21.5026 143.975 21.6328C144.632 21.763 145.192 21.9518 145.654 22.1992C146.123 22.4466 146.501 22.7461 146.787 23.0977C147.08 23.4492 147.308 23.8203 147.471 24.2109C147.64 24.5951 147.754 25.0475 147.812 25.5684C147.878 26.0892 147.91 26.6393 147.91 27.2188L147.754 27.8438H136.66C136.66 28.7031 136.745 29.4095 136.914 29.9629C137.083 30.5098 137.363 30.9102 137.754 31.1641C138.145 31.418 138.659 31.5807 139.297 31.6523C139.935 31.7174 140.723 31.75 141.66 31.75C142.52 31.75 143.229 31.7272 143.789 31.6816C144.355 31.6296 144.805 31.5352 145.137 31.3984C145.469 31.2617 145.7 31.0729 145.83 30.832C145.967 30.5846 146.035 30.2656 146.035 29.875H147.91C147.91 30.4805 147.803 30.998 147.588 31.4277C147.38 31.8509 147.031 32.196 146.543 32.4629C146.055 32.7233 145.41 32.9121 144.609 33.0293C143.815 33.153 142.832 33.2148 141.66 33.2148ZM141.66 23C141.035 23 140.475 23.013 139.98 23.0391C139.492 23.0651 139.062 23.1237 138.691 23.2148C138.327 23.2995 138.014 23.4264 137.754 23.5957C137.493 23.7585 137.282 23.9538 137.119 24.1816C136.963 24.403 136.846 24.7188 136.768 25.1289C136.696 25.5326 136.66 26.0208 136.66 26.5938H146.035C146.035 25.832 145.954 25.2363 145.791 24.8066C145.628 24.3704 145.371 24.0124 145.02 23.7324C144.668 23.4525 144.215 23.2604 143.662 23.1562C143.109 23.0521 142.441 23 141.66 23Z" fill="#EF0195"/>
<rect x="1.5" y="1" width="157" height="46" rx="9" stroke="#F68741" stroke-width="2"/>
</svg>
